<svg width="512" height="512" viewBox="0 0 512 512" fill="none" xmlns="http://www.w3.org/2000/svg">
<path d="M311.123 109C372.487 109 415.876 168.448 397.232 226.31L396.78 227.676L380.812 274.73L446 390H249.886C262.038 377.173 271.575 361.679 277.496 344.228L281.033 333.8H349.391L319.232 280.47L343.244 209.702C350.66 187.845 334.316 165.2 311.123 165.2H215.226C191.102 165.2 169.636 180.436 161.794 203.129L130.183 294.6C123.546 313.805 137.893 333.8 158.309 333.8C171.07 333.8 182.408 325.703 186.488 313.678L208.264 249.494C192.732 249.412 180.168 236.869 180.168 221.4C180.168 205.881 192.816 193.3 208.418 193.3H286.813C302.415 193.3 315.063 205.881 315.063 221.4C315.063 236.919 302.415 249.5 286.813 249.5H267.896L240.023 331.649C228.191 366.521 195.312 390 158.309 390C99.1054 390 57.5074 332.023 76.7531 276.333L108.364 184.862C124.049 139.475 166.977 109 215.226 109H311.123Z" fill="black"/>
</svg>
